<mxfile host="Electron" agent="Mozilla/5.0 (Windows NT 10.0; Win64; x64) AppleWebKit/537.36 (KHTML, like Gecko) draw.io/24.7.17 Chrome/128.0.6613.36 Electron/32.0.1 Safari/537.36" version="24.7.17">
  <diagram name="Pagina-1" id="I4KqEgDxAsdPQVXRarIJ">
    <mxGraphModel dx="568" dy="329" grid="1" gridSize="10" guides="1" tooltips="1" connect="1" arrows="1" fold="1" page="1" pageScale="1" pageWidth="827" pageHeight="1169" math="0" shadow="0">
      <root>
        <mxCell id="0" />
        <mxCell id="1" parent="0" />
        <mxCell id="Qsdnh0ISHQkxJWzjUV4s-1" value="" style="endArrow=classic;html=1;rounded=0;strokeColor=#A8A8A8;" edge="1" parent="1">
          <mxGeometry width="50" height="50" relative="1" as="geometry">
            <mxPoint x="269" y="360" as="sourcePoint" />
            <mxPoint x="559" y="360" as="targetPoint" />
          </mxGeometry>
        </mxCell>
        <mxCell id="Qsdnh0ISHQkxJWzjUV4s-2" value="" style="endArrow=classic;html=1;rounded=0;strokeColor=#A8A8A8;" edge="1" parent="1">
          <mxGeometry width="50" height="50" relative="1" as="geometry">
            <mxPoint x="269" y="380" as="sourcePoint" />
            <mxPoint x="559" y="380" as="targetPoint" />
          </mxGeometry>
        </mxCell>
        <mxCell id="Qsdnh0ISHQkxJWzjUV4s-3" value="" style="endArrow=classic;html=1;rounded=0;strokeColor=#A8A8A8;" edge="1" parent="1">
          <mxGeometry width="50" height="50" relative="1" as="geometry">
            <mxPoint x="269" y="400" as="sourcePoint" />
            <mxPoint x="559" y="400" as="targetPoint" />
          </mxGeometry>
        </mxCell>
        <mxCell id="Qsdnh0ISHQkxJWzjUV4s-4" value="" style="endArrow=classic;html=1;rounded=0;strokeColor=#A8A8A8;" edge="1" parent="1">
          <mxGeometry width="50" height="50" relative="1" as="geometry">
            <mxPoint x="269" y="420" as="sourcePoint" />
            <mxPoint x="559" y="420" as="targetPoint" />
          </mxGeometry>
        </mxCell>
        <mxCell id="Qsdnh0ISHQkxJWzjUV4s-6" value="" style="endArrow=classic;html=1;rounded=0;strokeColor=#A8A8A8;" edge="1" parent="1">
          <mxGeometry width="50" height="50" relative="1" as="geometry">
            <mxPoint x="269" y="320" as="sourcePoint" />
            <mxPoint x="559" y="320" as="targetPoint" />
          </mxGeometry>
        </mxCell>
        <mxCell id="Qsdnh0ISHQkxJWzjUV4s-7" value="" style="endArrow=classic;html=1;rounded=0;strokeColor=#A8A8A8;" edge="1" parent="1">
          <mxGeometry width="50" height="50" relative="1" as="geometry">
            <mxPoint x="269" y="340" as="sourcePoint" />
            <mxPoint x="559" y="340" as="targetPoint" />
          </mxGeometry>
        </mxCell>
        <mxCell id="Qsdnh0ISHQkxJWzjUV4s-8" value="" style="ellipse;whiteSpace=wrap;html=1;aspect=fixed;fillColor=#9C159C;strokeColor=none;gradientColor=#b3b3b3;" vertex="1" parent="1">
          <mxGeometry x="360" y="330" width="80" height="80" as="geometry" />
        </mxCell>
        <mxCell id="Qsdnh0ISHQkxJWzjUV4s-10" value="-" style="shape=parallelogram;perimeter=parallelogramPerimeter;whiteSpace=wrap;html=1;fixedSize=1;fillColor=#dae8fc;gradientColor=#7ea6e0;strokeColor=none;" vertex="1" parent="1">
          <mxGeometry x="570" y="310" width="50" height="120" as="geometry" />
        </mxCell>
        <mxCell id="Qsdnh0ISHQkxJWzjUV4s-11" value="+" style="shape=parallelogram;perimeter=parallelogramPerimeter;whiteSpace=wrap;html=1;fixedSize=1;fillColor=#f8cecc;gradientColor=#ea6b66;strokeColor=none;" vertex="1" parent="1">
          <mxGeometry x="210" y="310" width="50" height="120" as="geometry" />
        </mxCell>
        <mxCell id="Qsdnh0ISHQkxJWzjUV4s-52" value="" style="endArrow=classic;html=1;rounded=0;fillColor=#f5f5f5;gradientColor=#b3b3b3;strokeColor=#666666;" edge="1" parent="1">
          <mxGeometry width="50" height="50" relative="1" as="geometry">
            <mxPoint x="370" y="360" as="sourcePoint" />
            <mxPoint x="400" y="360" as="targetPoint" />
          </mxGeometry>
        </mxCell>
        <mxCell id="Qsdnh0ISHQkxJWzjUV4s-53" value="" style="endArrow=classic;html=1;rounded=0;fillColor=#f5f5f5;gradientColor=#b3b3b3;strokeColor=#666666;" edge="1" parent="1">
          <mxGeometry width="50" height="50" relative="1" as="geometry">
            <mxPoint x="430" y="360" as="sourcePoint" />
            <mxPoint x="400" y="360" as="targetPoint" />
          </mxGeometry>
        </mxCell>
        <mxCell id="Qsdnh0ISHQkxJWzjUV4s-57" value="" style="endArrow=classic;html=1;rounded=0;fillColor=#f5f5f5;gradientColor=#b3b3b3;strokeColor=#666666;" edge="1" parent="1">
          <mxGeometry width="50" height="50" relative="1" as="geometry">
            <mxPoint x="370" y="379.84" as="sourcePoint" />
            <mxPoint x="400" y="379.84" as="targetPoint" />
          </mxGeometry>
        </mxCell>
        <mxCell id="Qsdnh0ISHQkxJWzjUV4s-58" value="" style="endArrow=classic;html=1;rounded=0;fillColor=#f5f5f5;gradientColor=#b3b3b3;strokeColor=#666666;" edge="1" parent="1">
          <mxGeometry width="50" height="50" relative="1" as="geometry">
            <mxPoint x="430" y="379.84" as="sourcePoint" />
            <mxPoint x="400" y="379.84" as="targetPoint" />
          </mxGeometry>
        </mxCell>
        <mxCell id="Qsdnh0ISHQkxJWzjUV4s-59" value="" style="endArrow=classic;html=1;rounded=0;fillColor=#f5f5f5;gradientColor=#b3b3b3;strokeColor=#666666;" edge="1" parent="1">
          <mxGeometry width="50" height="50" relative="1" as="geometry">
            <mxPoint x="380" y="400" as="sourcePoint" />
            <mxPoint x="400" y="399.84" as="targetPoint" />
          </mxGeometry>
        </mxCell>
        <mxCell id="Qsdnh0ISHQkxJWzjUV4s-60" value="" style="endArrow=classic;html=1;rounded=0;fillColor=#f5f5f5;gradientColor=#b3b3b3;strokeColor=#666666;" edge="1" parent="1">
          <mxGeometry width="50" height="50" relative="1" as="geometry">
            <mxPoint x="420" y="400" as="sourcePoint" />
            <mxPoint x="400" y="399.84" as="targetPoint" />
          </mxGeometry>
        </mxCell>
        <mxCell id="Qsdnh0ISHQkxJWzjUV4s-61" value="" style="endArrow=classic;html=1;rounded=0;fillColor=#f5f5f5;gradientColor=#b3b3b3;strokeColor=#666666;" edge="1" parent="1">
          <mxGeometry width="50" height="50" relative="1" as="geometry">
            <mxPoint x="380" y="340" as="sourcePoint" />
            <mxPoint x="400" y="340" as="targetPoint" />
          </mxGeometry>
        </mxCell>
        <mxCell id="Qsdnh0ISHQkxJWzjUV4s-62" value="" style="endArrow=classic;html=1;rounded=0;fillColor=#f5f5f5;gradientColor=#b3b3b3;strokeColor=#666666;" edge="1" parent="1">
          <mxGeometry width="50" height="50" relative="1" as="geometry">
            <mxPoint x="420" y="340" as="sourcePoint" />
            <mxPoint x="400" y="340" as="targetPoint" />
          </mxGeometry>
        </mxCell>
        <mxCell id="Qsdnh0ISHQkxJWzjUV4s-63" value="" style="endArrow=classic;html=1;rounded=0;fillColor=#f5f5f5;gradientColor=#b3b3b3;strokeColor=#666666;" edge="1" parent="1">
          <mxGeometry width="50" height="50" relative="1" as="geometry">
            <mxPoint x="370" y="369.80999999999995" as="sourcePoint" />
            <mxPoint x="400" y="369.80999999999995" as="targetPoint" />
          </mxGeometry>
        </mxCell>
        <mxCell id="Qsdnh0ISHQkxJWzjUV4s-64" value="" style="endArrow=classic;html=1;rounded=0;fillColor=#f5f5f5;gradientColor=#b3b3b3;strokeColor=#666666;" edge="1" parent="1">
          <mxGeometry width="50" height="50" relative="1" as="geometry">
            <mxPoint x="430" y="369.80999999999995" as="sourcePoint" />
            <mxPoint x="400" y="369.80999999999995" as="targetPoint" />
          </mxGeometry>
        </mxCell>
        <mxCell id="Qsdnh0ISHQkxJWzjUV4s-65" value="" style="endArrow=classic;html=1;rounded=0;fillColor=#f5f5f5;gradientColor=#b3b3b3;strokeColor=#666666;" edge="1" parent="1">
          <mxGeometry width="50" height="50" relative="1" as="geometry">
            <mxPoint x="370" y="350" as="sourcePoint" />
            <mxPoint x="400" y="350" as="targetPoint" />
          </mxGeometry>
        </mxCell>
        <mxCell id="Qsdnh0ISHQkxJWzjUV4s-66" value="" style="endArrow=classic;html=1;rounded=0;fillColor=#f5f5f5;gradientColor=#b3b3b3;strokeColor=#666666;" edge="1" parent="1">
          <mxGeometry width="50" height="50" relative="1" as="geometry">
            <mxPoint x="430" y="350" as="sourcePoint" />
            <mxPoint x="400" y="350" as="targetPoint" />
          </mxGeometry>
        </mxCell>
        <mxCell id="Qsdnh0ISHQkxJWzjUV4s-67" value="" style="endArrow=classic;html=1;rounded=0;fillColor=#f5f5f5;gradientColor=#b3b3b3;strokeColor=#666666;" edge="1" parent="1">
          <mxGeometry width="50" height="50" relative="1" as="geometry">
            <mxPoint x="370" y="389.80999999999995" as="sourcePoint" />
            <mxPoint x="400" y="389.80999999999995" as="targetPoint" />
          </mxGeometry>
        </mxCell>
        <mxCell id="Qsdnh0ISHQkxJWzjUV4s-68" value="" style="endArrow=classic;html=1;rounded=0;fillColor=#f5f5f5;gradientColor=#b3b3b3;strokeColor=#666666;" edge="1" parent="1">
          <mxGeometry width="50" height="50" relative="1" as="geometry">
            <mxPoint x="430" y="389.80999999999995" as="sourcePoint" />
            <mxPoint x="400" y="389.80999999999995" as="targetPoint" />
          </mxGeometry>
        </mxCell>
        <mxCell id="Qsdnh0ISHQkxJWzjUV4s-69" value="" style="endArrow=classic;html=1;rounded=0;" edge="1" parent="1">
          <mxGeometry width="50" height="50" relative="1" as="geometry">
            <mxPoint x="400" y="330" as="sourcePoint" />
            <mxPoint x="400" y="310" as="targetPoint" />
          </mxGeometry>
        </mxCell>
        <mxCell id="Qsdnh0ISHQkxJWzjUV4s-70" value="" style="endArrow=classic;html=1;rounded=0;" edge="1" parent="1">
          <mxGeometry width="50" height="50" relative="1" as="geometry">
            <mxPoint x="440" y="370" as="sourcePoint" />
            <mxPoint x="460" y="370" as="targetPoint" />
          </mxGeometry>
        </mxCell>
        <mxCell id="Qsdnh0ISHQkxJWzjUV4s-71" value="" style="endArrow=classic;html=1;rounded=0;exitX=0.5;exitY=1;exitDx=0;exitDy=0;" edge="1" parent="1" source="Qsdnh0ISHQkxJWzjUV4s-8">
          <mxGeometry width="50" height="50" relative="1" as="geometry">
            <mxPoint x="404" y="410" as="sourcePoint" />
            <mxPoint x="400" y="430" as="targetPoint" />
          </mxGeometry>
        </mxCell>
        <mxCell id="Qsdnh0ISHQkxJWzjUV4s-72" value="" style="endArrow=classic;html=1;rounded=0;exitX=0.5;exitY=1;exitDx=0;exitDy=0;" edge="1" parent="1">
          <mxGeometry width="50" height="50" relative="1" as="geometry">
            <mxPoint x="360" y="370" as="sourcePoint" />
            <mxPoint x="340" y="370" as="targetPoint" />
          </mxGeometry>
        </mxCell>
        <mxCell id="Qsdnh0ISHQkxJWzjUV4s-73" value="" style="endArrow=classic;html=1;rounded=0;exitX=0.5;exitY=1;exitDx=0;exitDy=0;" edge="1" parent="1">
          <mxGeometry width="50" height="50" relative="1" as="geometry">
            <mxPoint x="430" y="400" as="sourcePoint" />
            <mxPoint x="450" y="420" as="targetPoint" />
          </mxGeometry>
        </mxCell>
        <mxCell id="Qsdnh0ISHQkxJWzjUV4s-74" value="" style="endArrow=classic;html=1;rounded=0;exitX=0.5;exitY=1;exitDx=0;exitDy=0;" edge="1" parent="1">
          <mxGeometry width="50" height="50" relative="1" as="geometry">
            <mxPoint x="370" y="400" as="sourcePoint" />
            <mxPoint x="350" y="420" as="targetPoint" />
          </mxGeometry>
        </mxCell>
        <mxCell id="Qsdnh0ISHQkxJWzjUV4s-75" value="" style="endArrow=classic;html=1;rounded=0;exitX=0.5;exitY=1;exitDx=0;exitDy=0;" edge="1" parent="1">
          <mxGeometry width="50" height="50" relative="1" as="geometry">
            <mxPoint x="430" y="340" as="sourcePoint" />
            <mxPoint x="450" y="320" as="targetPoint" />
          </mxGeometry>
        </mxCell>
        <mxCell id="Qsdnh0ISHQkxJWzjUV4s-76" value="" style="endArrow=classic;html=1;rounded=0;exitX=0.5;exitY=1;exitDx=0;exitDy=0;" edge="1" parent="1">
          <mxGeometry width="50" height="50" relative="1" as="geometry">
            <mxPoint x="370" y="340" as="sourcePoint" />
            <mxPoint x="350" y="320" as="targetPoint" />
          </mxGeometry>
        </mxCell>
        <mxCell id="Qsdnh0ISHQkxJWzjUV4s-77" value="" style="endArrow=classic;html=1;rounded=0;" edge="1" parent="1">
          <mxGeometry width="50" height="50" relative="1" as="geometry">
            <mxPoint x="440" y="350" as="sourcePoint" />
            <mxPoint x="460" y="340" as="targetPoint" />
          </mxGeometry>
        </mxCell>
        <mxCell id="Qsdnh0ISHQkxJWzjUV4s-78" value="" style="endArrow=classic;html=1;rounded=0;" edge="1" parent="1">
          <mxGeometry width="50" height="50" relative="1" as="geometry">
            <mxPoint x="360" y="350" as="sourcePoint" />
            <mxPoint x="340" y="340" as="targetPoint" />
          </mxGeometry>
        </mxCell>
        <mxCell id="Qsdnh0ISHQkxJWzjUV4s-79" value="" style="endArrow=classic;html=1;rounded=0;" edge="1" parent="1">
          <mxGeometry width="50" height="50" relative="1" as="geometry">
            <mxPoint x="360" y="390" as="sourcePoint" />
            <mxPoint x="340" y="400" as="targetPoint" />
          </mxGeometry>
        </mxCell>
        <mxCell id="Qsdnh0ISHQkxJWzjUV4s-80" value="" style="endArrow=classic;html=1;rounded=0;" edge="1" parent="1">
          <mxGeometry width="50" height="50" relative="1" as="geometry">
            <mxPoint x="440" y="390" as="sourcePoint" />
            <mxPoint x="460" y="400" as="targetPoint" />
          </mxGeometry>
        </mxCell>
      </root>
    </mxGraphModel>
  </diagram>
</mxfile>
